<?xml version="1.0" encoding="utf-8"?>
<!-- Generator: Adobe Illustrator 19.2.1, SVG Export Plug-In . SVG Version: 6.00 Build 0)  -->
<svg version="1.1" id="Layer_1" xmlns="http://www.w3.org/2000/svg" xmlns:xlink="http://www.w3.org/1999/xlink" x="0px" y="0px"
	 width="50px" height="54px" viewBox="0 0 50 54" enable-background="new 0 0 50 54" xml:space="preserve">
<g>
	<g>
		<path fill="#FFFFFF" d="M35.5,51H30c-0.3,0-0.5-0.2-0.5-0.5S29.7,50,30,50h5.5c3.7,0,5.5-2.2,5.5-6.6v-5.2c0-2.4,0.6-4.4,1.7-5.8
			c0.8-0.9,1.7-1.6,2.9-2c-1.2-0.4-2.1-1.1-2.9-2c-1.1-1.4-1.7-3.4-1.7-5.8v-3.4c0-3.3-1-7.1-5.5-7.1H30c-0.3,0-0.5-0.2-0.5-0.5
			S29.7,11,30,11h5.5c4.1,0,6.5,3,6.5,8.1v3.4c0,2.2,0.5,4,1.5,5.3c1.1,1.4,2.8,2.2,5,2.2c0,0,0,0,0,0l0,0c0.1,0,0.3,0,0.4,0.1
			s0.1,0.1,0.1,0.3v0.1c0,0.1-0.1,0.3-0.1,0.4S48.6,31,48.5,31l0,0c0,0,0,0,0,0c-2.2,0-3.9,0.7-5,2.1c-1,1.2-1.5,3-1.5,5.2v5.2
			C42,49.7,38.5,51,35.5,51z"/>
	</g>
	<g>
		<path fill="#FFFFFF" d="M20,51h-4.6C10.8,51,8,48.1,8,43.4v-5.2c0-2.1,0-3.9-0.8-5.2c-0.9-1.4-2.7-2-5.7-2c0,0,0,0,0,0
			c-0.1,0-0.3-0.1-0.4-0.2S1,30.6,1,30.4v-0.1c0-0.1,0.1-0.2,0.1-0.3S1.4,30,1.5,30c0,0,0,0,0,0c3,0,4.8-0.7,5.7-2.1
			C8,26.6,8,24.7,8,22.5v-3.4c0-4.8,3-8.1,7.4-8.1H20c0.3,0,0.5,0.2,0.5,0.5S20.3,12,20,12h-4.6C11.6,12,9,14.9,9,19.1v3.4
			c0,2.2,0,4.3-0.9,5.8c-0.6,1-1.6,1.7-2.9,2.1c1.3,0.4,2.3,1.1,2.9,2.1C9,34,9,36,9,38.2v5.2c0,4.1,2.4,6.6,6.4,6.6H20
			c0.3,0,0.5,0.2,0.5,0.5S20.3,51,20,51z"/>
	</g>
</g>
</svg>
