<?xml version="1.0" standalone="no"?>
<!DOCTYPE svg PUBLIC "-//W3C//DTD SVG 20010904//EN"
 "http://www.w3.org/TR/2001/REC-SVG-20010904/DTD/svg10.dtd">
<svg version="1.0" xmlns="http://www.w3.org/2000/svg"
 width="300.000000pt" height="300.000000pt" viewBox="0 0 300.000000 300.000000"
 preserveAspectRatio="xMidYMid meet">
<metadata>
Created by potrace 1.10, written by Peter Selinger 2001-2011
</metadata>
<g transform="translate(0.000000,300.000000) scale(0.050000,-0.050000)"
fill="#f9f5f5" stroke="none">
<path d="M461 5564 c-66 -66 -79 -143 -38 -232 38 -84 122 -106 447 -119 2382
-97 4329 -2160 4323 -4579 0 -170 228 -256 339 -128 122 142 16 1068 -195
1699 -655 1960 -2467 3332 -4501 3409 l-313 12 -62 -62z"/>
<path d="M3227 5607 c7 -13 2 -28 -12 -34 -19 -8 -19 -10 1 -11 15 -1 21 -10
15 -20 -17 -28 40 -14 81 19 32 26 34 25 22 -7 -8 -20 -5 -31 5 -25 10 7 17
29 16 50 -2 27 -11 33 -26 20 -12 -10 -29 -12 -38 -4 -8 8 -11 5 -8 -8 4 -13
-2 -24 -13 -25 -11 -1 -20 6 -20 16 0 10 -8 26 -18 35 -11 10 -13 7 -5 -6z"/>
<path d="M3803 5604 c7 -49 -7 -106 -35 -133 -17 -17 -27 -43 -21 -56 8 -20
10 -20 11 0 1 14 15 25 31 25 20 0 25 12 17 33 -8 21 -5 29 9 20 14 -8 17 2
10 29 -6 23 0 49 14 57 18 12 16 19 -7 27 -17 7 -31 6 -29 -2z"/>
<path d="M3998 5170 c-9 -46 -3 -111 11 -115 25 -7 31 63 7 77 -13 8 -10 19 7
30 20 13 20 17 2 18 -14 0 -26 -4 -27 -10z"/>
<path d="M4114 5007 c-8 -7 -4 -25 9 -40 17 -21 15 -27 -9 -27 -17 0 -35 11
-41 25 -5 14 -11 0 -11 -30 -2 -40 8 -55 33 -55 30 1 31 4 5 22 -23 16 -18 19
25 12 31 -5 61 -1 67 9 6 9 0 17 -12 17 -12 0 -17 9 -10 20 7 12 23 15 34 7
14 -8 16 -4 7 11 -11 17 -22 18 -41 2 -16 -14 -31 -15 -38 -3 -7 11 -1 24 13
30 14 5 15 11 3 11 -12 1 -27 -4 -34 -11z"/>
<path d="M528 3640 c-265 -106 -143 -365 182 -387 1384 -97 2431 -1155 2504
-2532 15 -276 54 -341 205 -341 173 0 218 115 185 466 -144 1514 -1271 2648
-2774 2794 -237 22 -247 23 -302 0z"/>
<path d="M1125 2010 c-744 -208 -665 -1272 101 -1362 514 -60 919 492 706 964
-139 310 -496 485 -807 398z m434 -305 c271 -168 254 -628 -29 -765 -352 -170
-690 25 -690 400 0 370 390 568 719 365z"/>
</g>
</svg>
